<svg id="Слой_1" data-name="Слой 1" xmlns="http://www.w3.org/2000/svg" viewBox="0 0 743.3 723.31"><defs><style>.cls-1{fill:#f7da1a;stroke:#000;stroke-miterlimit:6.25;stroke-width:1.56px;}</style></defs><title>inventory</title><g id="SVGRepo_iconCarrier" data-name="SVGRepo iconCarrier"><path class="cls-1" d="M229.46,32.57c-19.58-.06-37.91,4.46-58.25,14.72h0c-75.34,38-140,141.36-143.11,227.57L93.48,297.1C100.25,200.4,167,96.53,252.12,53.57h0a210.62,210.62,0,0,1,20.6-9.06L237.94,32.87c-2.86-.19-5.68-.3-8.48-.3Zm92.72,31.54C305.81,64,286.51,69,265.27,79.65h0c-75.36,38-140,141.43-143,227.25l244.51,83.18c6-97.22,73.12-202.14,158.77-245.36h0a207.29,207.29,0,0,1,20.05-8.85L335.35,65.48a68.38,68.38,0,0,0-13.17-1.36Zm273.39,91.13c-16.37-.14-35.67,4.83-56.9,15.53h0c-75.9,38.31-141,142.92-143.1,229.09l72.19,24.57c6.12-97.17,73.17-202,158.76-245.19A200.92,200.92,0,0,1,647.65,170l-41.47-13.89a70.69,70.69,0,0,0-10.6-.89Zm99.31,34.4c-16,.14-34.53,5.24-55.21,15.68C566,242.5,502.52,342.17,496.92,426.8L769.65,311.6c-.63-61-16.8-95.78-38.15-111.06a55.66,55.66,0,0,0-11.8-6.46v0l-7.4-2.48a67.86,67.86,0,0,0-17.41-2ZM28,305.66,27.91,598.6l65,22.62V327.76L28,305.66Zm94.14,32V631.38l244.19,85V420.76l-45.4-15.44V591.93L163,538.67V351.6Zm647.22,5.75L497.55,458.23V753.92L769.33,639.07V343.44Zm-577.12,18.1V517.71l99.49,33.55V395.38l-99.49-33.84Zm48.92,45a27.43,27.43,0,0,1,14.32,50.85V502h-29.2V457a27.44,27.44,0,0,1,14.88-50.51ZM395.5,430.7V726.49l72.85,25.34V455.48L395.5,430.7Z" transform="translate(-27.13 -31.78)"/></g></svg>